<svg width="173" height="64" viewBox="0 0 173 64" fill="none" xmlns="http://www.w3.org/2000/svg">
<path d="M10.9338 5.36126C8.36062 5.19811 6.13722 7.14031 5.95308 9.71208L2.60664 56.4488C2.38558 59.5361 5.1598 61.989 8.19674 61.3914L59.5688 51.2837C59.613 51.275 59.658 51.2706 59.7031 51.2706H108.701H165.469C168.062 51.2706 170.165 49.1683 170.165 46.575V6.91119C170.165 4.17579 167.836 2.01941 165.108 2.22947L126.643 5.19236L126.631 5.19311L68.4742 9.0096L10.9338 5.36126Z" stroke="black" stroke-width="4"/>
<path d="M10.5728 12.8575C10.6895 11.3975 11.9505 10.2979 13.4127 10.3809L69.0947 13.5445L125.435 10.2315L162.555 7.66956C164.113 7.56202 165.436 8.79695 165.436 10.3587V43.9785C165.436 45.4672 164.23 46.6741 162.741 46.6741H107.969H60.5978C60.4409 46.6741 60.2843 46.6878 60.1297 46.715L10.5532 55.4556C8.816 55.7619 7.25765 54.3447 7.39816 52.5863L10.5728 12.8575Z" fill="#FFBB02"/>
</svg>
