<svg width="23" height="23" viewBox="0 0 23 23" fill="none" xmlns="http://www.w3.org/2000/svg">
<g clip-path="url(#clip0_1_637)">
<path fill-rule="evenodd" clip-rule="evenodd" d="M11.5 21.5625C5.94263 21.5625 1.4375 17.0559 1.4375 11.5C1.4375 5.94406 5.94263 1.4375 11.5 1.4375C17.0574 1.4375 21.5625 5.94406 21.5625 11.5C21.5625 17.0559 17.0574 21.5625 11.5 21.5625ZM11.5 0C5.14841 0 0 5.14625 0 11.5C0 17.8538 5.14841 23 11.5 23C17.8516 23 23 17.8538 23 11.5C23 5.14625 17.8516 0 11.5 0ZM15.6091 7.38877C15.3259 7.10846 14.8681 7.10846 14.5849 7.38877L11.4957 10.4793L8.45106 7.43185C8.17003 7.15154 7.71434 7.15154 7.43475 7.43185C7.15371 7.71216 7.15371 8.17219 7.43475 8.45251L10.4794 11.4928L7.41321 14.5619C7.13074 14.8422 7.13074 15.3021 7.41321 15.5896C7.69639 15.87 8.15493 15.87 8.43812 15.5896L11.5043 12.5207L14.5489 15.5681C14.83 15.8485 15.2856 15.8485 15.566 15.5681C15.847 15.2878 15.847 14.8278 15.566 14.5475L12.5206 11.5072L15.6091 8.41653C15.8915 8.12903 15.8915 7.67627 15.6091 7.38877Z" fill="black"/>
</g>
<defs>
<clipPath id="clip0_1_637">
<rect width="23" height="23" fill="white"/>
</clipPath>
</defs>
</svg>
