<svg width="356" height="49" viewBox="0 0 356 49" fill="none" xmlns="http://www.w3.org/2000/svg">
<path d="M45.312 15.64C45.312 19.1813 43.9893 22.04 41.344 24.216C39.296 25.9227 36.3307 27.3093 32.448 28.376C30.4427 28.9733 26.944 29.6133 21.952 30.296H20.928V39.384C21.0987 40.5787 21.632 41.3893 22.528 41.816L22.848 42.008C23.8293 42.6053 24.32 43.3947 24.32 44.376C24.32 44.632 24.1493 45.144 23.808 45.912C23.4667 46.6373 22.72 47 21.568 47H3.584C2.944 47 2.45333 46.9147 2.112 46.744C1.77067 46.5307 1.49333 46.296 1.28 46.04C1.10933 45.7413 1.00267 45.4427 0.96 45.144C0.917333 44.8453 0.896 44.5893 0.896 44.376C0.896 43.2667 1.38667 42.4773 2.368 42.008L2.752 41.816C3.60533 41.3467 4.11733 40.536 4.288 39.384V9.816C4.07467 8.62133 3.56267 7.81067 2.752 7.384L2.56 7.32L2.368 7.192C1.38667 6.72267 0.896 5.93333 0.896 4.824C0.896 3.07466 1.792 2.2 3.584 2.2H30.08C34.56 2.2 38.1653 3.30933 40.896 5.528C43.84 7.91733 45.312 11.288 45.312 15.64ZM28.288 14.872C28.3733 12.4827 27.6907 10.6267 26.24 9.304C25.1307 8.23733 23.8933 7.704 22.528 7.704C21.2053 7.704 20.544 8.28 20.544 9.432V10.584L20.48 23.896L20.928 23.832H21.184C21.6533 23.6187 22.016 23.4907 22.272 23.448C22.3573 23.4053 22.656 23.2347 23.168 22.936C23.7227 22.6373 24.4907 22.1893 25.472 21.592C27.136 20.6107 28.0747 18.3707 28.288 14.872ZM57.142 13.976C54.71 13.976 52.7047 13.4213 51.126 12.312C49.59 11.2027 48.8007 9.816 48.758 8.152C48.6727 6.14666 49.654 4.41866 51.702 2.968C53.5793 1.60266 55.3927 1.02666 57.142 1.24C59.1047 1.24 60.8967 1.816 62.518 2.968C64.2247 4.248 65.078 5.848 65.078 7.768C65.078 9.64533 64.2033 11.2027 62.454 12.44C60.9607 13.464 59.19 13.976 57.142 13.976ZM67.574 45.528C67.1047 46.5093 66.3153 47 65.206 47H48.758C47.9473 47 47.3073 46.744 46.838 46.232C46.4113 45.6773 46.198 45.1227 46.198 44.568C46.198 43.7147 46.646 42.9893 47.542 42.392L47.862 42.264C48.758 41.7947 49.2273 41.048 49.27 40.024L49.334 39.384L49.27 26.84C49.2273 25.944 48.758 25.2187 47.862 24.664L47.542 24.472L47.094 24.216C46.454 23.704 46.134 23.064 46.134 22.296C46.134 21.144 46.8593 20.312 48.31 19.8L61.174 16.536C61.302 16.4933 61.5367 16.472 61.878 16.472C63.286 16.472 64.182 17.4533 64.566 19.416C64.6087 19.544 64.63 20.184 64.63 21.336V39.384C64.63 40.792 65.0993 41.752 66.038 42.264L66.422 42.392L66.806 42.648C67.446 43.1173 67.766 43.7787 67.766 44.632C67.766 44.9307 67.702 45.2293 67.574 45.528ZM101.276 40.088L100.316 45.08L99.9955 45.72C99.7395 46.3173 99.0995 46.7013 98.0755 46.872L97.1155 47L72.2835 46.936C70.2782 46.68 69.2755 45.528 69.2755 43.48C69.3182 43.352 69.3395 43.0747 69.3395 42.648C69.3395 41.4107 70.6408 39.1707 73.2435 35.928C73.8835 35.2453 74.7795 34.2213 75.9315 32.856C77.1262 31.448 78.5982 29.6773 80.3475 27.544L84.2515 22.488L84.6355 22.104H83.8035L83.0355 22.168H81.9475L80.7315 22.232C79.7075 22.2747 78.9608 22.424 78.4915 22.68C78.0222 22.936 77.5315 23.448 77.0195 24.216L75.9955 25.752L75.8675 26.072C75.6115 26.4987 75.1208 26.8187 74.3955 27.032C74.0542 27.16 73.6062 27.16 73.0515 27.032C72.1128 26.8613 71.4088 26.392 70.9395 25.624C70.5555 25.0267 70.4275 24.5573 70.5555 24.216L71.3235 19.672C71.4515 18.8187 71.8142 18.2213 72.4115 17.88C72.7102 17.5813 73.3715 17.432 74.3955 17.432H96.9875C98.4808 17.432 99.5262 17.6027 100.124 17.944C100.764 18.2853 101.169 19.096 101.34 20.376C101.34 22.0827 100.764 23.7893 99.6115 25.496C98.9715 26.4773 97.6915 28.12 95.7715 30.424L93.6595 32.984C92.9768 33.8373 92.3368 34.648 91.7395 35.416C91.1422 36.1413 90.6088 36.8453 90.1395 37.528C89.7982 37.9547 89.1368 38.936 88.1555 40.472L87.8995 40.792L87.7715 41.048L87.0035 42.072L88.5395 42.008L89.1795 41.944L92.2515 41.752C93.4462 41.7093 94.3422 41.2187 94.9395 40.28L95.3875 39.704L95.7075 39.192C96.6888 37.6987 97.7768 36.952 98.9715 36.952C99.6115 36.952 100.166 37.1867 100.636 37.656C101.105 38.1253 101.34 38.68 101.34 39.32C101.34 39.7467 101.318 40.0027 101.276 40.088ZM135.963 40.088L135.003 45.08L134.683 45.72C134.427 46.3173 133.787 46.7013 132.763 46.872L131.803 47L106.971 46.936C104.966 46.68 103.963 45.528 103.963 43.48C104.006 43.352 104.027 43.0747 104.027 42.648C104.027 41.4107 105.328 39.1707 107.931 35.928C108.571 35.2453 109.467 34.2213 110.619 32.856C111.814 31.448 113.286 29.6773 115.035 27.544L118.939 22.488L119.323 22.104H118.491L117.723 22.168H116.635L115.419 22.232C114.395 22.2747 113.648 22.424 113.179 22.68C112.71 22.936 112.219 23.448 111.707 24.216L110.683 25.752L110.555 26.072C110.299 26.4987 109.808 26.8187 109.083 27.032C108.742 27.16 108.294 27.16 107.739 27.032C106.8 26.8613 106.096 26.392 105.627 25.624C105.243 25.0267 105.115 24.5573 105.243 24.216L106.011 19.672C106.139 18.8187 106.502 18.2213 107.099 17.88C107.398 17.5813 108.059 17.432 109.083 17.432H131.675C133.168 17.432 134.214 17.6027 134.811 17.944C135.451 18.2853 135.856 19.096 136.027 20.376C136.027 22.0827 135.451 23.7893 134.299 25.496C133.659 26.4773 132.379 28.12 130.459 30.424L128.347 32.984C127.664 33.8373 127.024 34.648 126.427 35.416C125.83 36.1413 125.296 36.8453 124.827 37.528C124.486 37.9547 123.824 38.936 122.843 40.472L122.587 40.792L122.459 41.048L121.691 42.072L123.227 42.008L123.867 41.944L126.939 41.752C128.134 41.7093 129.03 41.2187 129.627 40.28L130.075 39.704L130.395 39.192C131.376 37.6987 132.464 36.952 133.659 36.952C134.299 36.952 134.854 37.1867 135.323 37.656C135.792 38.1253 136.027 38.68 136.027 39.32C136.027 39.7467 136.006 40.0027 135.963 40.088ZM176.283 45.528C175.813 46.5093 175.024 47 173.915 47H162.395C161.243 47 160.389 46.7227 159.835 46.168L159.707 45.976L159.451 45.656L159.067 45.08L158.875 44.696C158.533 45.08 157.787 45.6133 156.635 46.296L155.611 46.872L155.355 47C153.819 47.5547 151.856 47.832 149.467 47.832C146.651 47.832 143.813 46.7013 140.955 44.44C139.248 43.032 138.395 40.92 138.395 38.104C138.395 33.6667 140.976 30.6587 146.139 29.08C146.992 28.824 147.824 28.6107 148.635 28.44C149.445 28.2267 150.277 28.0773 151.131 27.992L153.307 27.736L154.715 27.608L158.299 27.352L158.363 26.712L158.235 25.112C157.851 23.1493 156.848 22.168 155.227 22.168C154.715 22.168 154.16 22.3387 153.562 22.68L153.051 23.128L151.707 24.472L150.939 25.304C149.701 26.584 148.208 27.224 146.459 27.224C146.245 27.224 146.011 27.224 145.755 27.224C145.541 27.1813 145.328 27.1387 145.115 27.096L144.155 26.904C142.107 26.4773 141.083 25.1973 141.083 23.064C141.083 20.9307 142.299 19.3733 144.731 18.392C145.456 18.0933 146.373 17.8373 147.483 17.624C148.635 17.368 149.957 17.1547 151.451 16.984L153.115 16.792L157.467 16.6C158.533 16.5573 159.557 16.5573 160.539 16.6C161.52 16.6427 162.437 16.728 163.291 16.856C164.656 17.0267 166.171 17.5173 167.835 18.328C171.419 20.0773 173.211 23.1067 173.211 27.416V34.648C173.211 36.4827 173.211 37.7627 173.211 38.488C173.211 39.1707 173.189 39.2773 173.147 38.808C173.189 40.6 173.701 41.752 174.683 42.264L175.067 42.392L175.451 42.648C176.091 43.1173 176.411 43.8 176.411 44.696C176.411 44.9093 176.368 45.1867 176.283 45.528ZM158.363 37.72V32.216H158.107L155.355 32.728C155.269 32.7707 155.056 32.8773 154.715 33.048C154.416 33.2187 154.032 33.4747 153.562 33.816C152.368 34.6267 151.771 36.056 151.771 38.104C151.771 40.5787 152.88 41.6667 155.099 41.368C155.781 41.3253 156.485 40.8987 157.211 40.088C157.637 39.6613 157.979 39.128 158.235 38.488L158.299 37.976L158.363 37.72ZM187.425 47.768C184.95 47.768 182.923 47.256 181.345 46.232C179.809 45.1653 179.019 43.8 178.977 42.136C178.891 39.96 179.873 38.2107 181.921 36.888C183.67 35.6507 185.483 35.0747 187.361 35.16C190.049 35.288 192.182 36.1627 193.76 37.784C194.785 38.8933 195.297 40.1947 195.297 41.688C195.297 43.608 194.443 45.144 192.737 46.296C191.158 47.2773 189.387 47.768 187.425 47.768ZM244.436 35.544C244.564 35.8853 244.628 36.2693 244.628 36.696C244.628 38.7867 243.241 40.92 240.468 43.096C236.159 46.424 230.911 48.0027 224.724 47.832C219.092 47.6187 214.207 46.3387 210.068 43.992C206.612 41.9867 203.839 39.192 201.748 35.608C199.743 32.0667 198.74 28.2693 198.74 24.216C198.74 19.3947 200.617 14.7013 204.372 10.136C208.127 5.57066 212.351 2.92533 217.044 2.2L223.508 1.24C223.721 1.19733 224.468 1.176 225.748 1.176C229.247 1.176 232.276 1.66667 234.836 2.648L236.308 3.224C239.593 4.504 241.599 5.57066 242.324 6.424L243.284 7.896L243.412 8.856C243.583 10.136 243.711 11.2027 243.796 12.056C243.881 12.8667 243.924 13.4427 243.924 13.784C243.924 14.4667 243.86 15.0213 243.732 15.448C243.476 16.856 242.452 17.56 240.66 17.56C239.849 17.56 239.039 17.3467 238.228 16.92C237.417 16.4507 236.884 15.896 236.628 15.256L235.924 13.336C235.668 12.696 235.327 12.0773 234.9 11.48C234.473 10.8827 233.983 10.328 233.428 9.816C232.873 9.304 232.297 8.87733 231.7 8.536C231.103 8.19467 230.527 7.96 229.972 7.832C228.393 7.49067 227.241 7.32 226.516 7.32C224.127 7.32 221.993 8.17333 220.116 9.88C218.367 11.5013 217.172 13.5067 216.532 15.896C215.935 18.2 215.636 20.8453 215.636 23.832V26.648C215.636 27.544 216.063 29.5067 216.916 32.536C217.215 33.688 217.684 34.7333 218.324 35.672C219.007 36.6107 219.796 37.4427 220.692 38.168C221.588 38.8507 222.569 39.384 223.636 39.768C224.745 40.152 225.876 40.344 227.028 40.344C230.271 40.344 233.087 39.4267 235.476 37.592C236.031 37.1653 236.671 36.5893 237.396 35.864C239.145 34.1147 240.511 33.24 241.492 33.24C242.857 33.24 243.839 34.008 244.436 35.544ZM286.95 47H271.142C270.331 47 269.691 46.744 269.222 46.232C268.795 45.6773 268.582 45.1227 268.582 44.568C268.582 43.7147 269.03 42.9893 269.926 42.392L270.246 42.264C270.8 41.9653 271.078 41.432 271.078 40.664V25.816C271.078 23.8533 270.011 22.872 267.878 22.872C266.427 22.872 265.595 23.9387 265.382 26.072L265.318 26.84V39.384C265.318 41.0053 265.574 41.9653 266.086 42.264L266.406 42.392C267.344 42.776 267.814 43.5227 267.814 44.632C267.814 46.2107 266.96 47 265.253 47H248.742C248.187 47 247.718 46.6587 247.334 45.976C247.035 45.4213 246.886 44.952 246.886 44.568C246.886 43.7147 247.334 42.9893 248.23 42.392L248.549 42.264C249.446 41.7947 249.915 41.048 249.958 40.024L250.022 39.384L249.958 11.16C249.915 10.264 249.446 9.53866 248.549 8.984L248.23 8.792L247.782 8.536C247.142 8.024 246.822 7.384 246.822 6.616C246.822 5.464 247.547 4.632 248.998 4.12L261.862 0.855999C261.99 0.81333 262.203 0.791996 262.502 0.791996C263.312 0.791996 263.974 1.13333 264.486 1.816C264.912 2.37067 265.147 2.86133 265.19 3.288C265.232 3.50133 265.253 4.29066 265.253 5.656V19.16L265.894 18.712C268.07 17.176 270.566 16.408 273.382 16.408C277.52 16.408 280.699 17.4747 282.918 19.608C285.179 21.6987 286.31 24.6853 286.31 28.568V37.656C286.31 38.5093 286.331 39.192 286.374 39.704C286.416 40.216 286.48 40.6427 286.566 40.984C286.694 41.2827 286.843 41.5387 287.014 41.752C287.227 41.9227 287.504 42.0933 287.846 42.264L288.102 42.392L288.55 42.648C289.19 43.16 289.51 43.8 289.51 44.568C289.51 46.1893 288.656 47 286.95 47ZM328.658 45.528C328.188 46.5093 327.399 47 326.29 47H314.77C313.618 47 312.764 46.7227 312.21 46.168L312.082 45.976L311.826 45.656L311.442 45.08L311.25 44.696C310.908 45.08 310.162 45.6133 309.01 46.296L307.986 46.872L307.73 47C306.194 47.5547 304.231 47.832 301.842 47.832C299.026 47.832 296.188 46.7013 293.33 44.44C291.623 43.032 290.77 40.92 290.77 38.104C290.77 33.6667 293.351 30.6587 298.514 29.08C299.367 28.824 300.199 28.6107 301.01 28.44C301.82 28.2267 302.652 28.0773 303.506 27.992L305.682 27.736L307.09 27.608L310.674 27.352L310.738 26.712L310.61 25.112C310.226 23.1493 309.223 22.168 307.602 22.168C307.09 22.168 306.535 22.3387 305.938 22.68L305.426 23.128L304.082 24.472L303.314 25.304C302.076 26.584 300.583 27.224 298.834 27.224C298.62 27.224 298.386 27.224 298.13 27.224C297.916 27.1813 297.703 27.1387 297.49 27.096L296.53 26.904C294.482 26.4773 293.458 25.1973 293.458 23.064C293.458 20.9307 294.674 19.3733 297.106 18.392C297.831 18.0933 298.748 17.8373 299.858 17.624C301.01 17.368 302.332 17.1547 303.826 16.984L305.49 16.792L309.842 16.6C310.908 16.5573 311.932 16.5573 312.914 16.6C313.895 16.6427 314.812 16.728 315.666 16.856C317.031 17.0267 318.546 17.5173 320.21 18.328C323.794 20.0773 325.586 23.1067 325.586 27.416V34.648C325.586 36.4827 325.586 37.7627 325.586 38.488C325.586 39.1707 325.564 39.2773 325.522 38.808C325.564 40.6 326.076 41.752 327.058 42.264L327.442 42.392L327.826 42.648C328.466 43.1173 328.786 43.8 328.786 44.696C328.786 44.9093 328.743 45.1867 328.658 45.528ZM310.738 37.72V32.216H310.482L307.73 32.728C307.644 32.7707 307.431 32.8773 307.09 33.048C306.791 33.2187 306.407 33.4747 305.938 33.816C304.743 34.6267 304.146 36.056 304.146 38.104C304.146 40.5787 305.255 41.6667 307.474 41.368C308.156 41.3253 308.86 40.8987 309.586 40.088C310.012 39.6613 310.354 39.128 310.61 38.488L310.674 37.976L310.738 37.72ZM355.544 44.248C355.544 46.0827 354.242 47 351.64 47H338.776C338.264 47 337.496 46.7653 336.472 46.296C334.68 45.144 333.784 43.6293 333.784 41.752V23.704H331.608C331.053 23.704 330.541 23.4267 330.072 22.872C329.602 22.2747 329.367 21.5707 329.367 20.76C329.367 18.7547 330.285 17.6667 332.12 17.496C333.784 17.3253 335.085 16.9627 336.024 16.408L336.472 16.152L336.792 15.896C337.474 15.3413 338.221 13.7413 339.032 11.096C339.629 9.26133 340.802 8.25866 342.552 8.088C344.984 8.088 346.264 8.10933 346.392 8.152C347.928 8.408 348.696 9.19733 348.696 10.52V17.432H352.28C354.498 17.432 355.608 18.4347 355.608 20.44C355.608 21.6773 355.394 22.5307 354.968 23C354.584 23.4693 353.773 23.704 352.536 23.704H348.632V38.552C348.888 39.576 349.165 40.1947 349.464 40.408C350.018 40.8773 351.106 41.0693 352.728 40.984L353.56 41.112C354.882 41.2827 355.544 42.328 355.544 44.248Z" fill="black"/>
</svg>
