<svg width="85" height="85" viewBox="0 0 85 85" fill="none" xmlns="http://www.w3.org/2000/svg">
<path d="M21.25 31.875V7.08337H63.75V31.875" stroke="black" stroke-width="4.33333" stroke-linecap="round" stroke-linejoin="round"/>
<path d="M21.25 63.75H14.1667C12.2881 63.75 10.4864 63.0037 9.15803 61.6753C7.82965 60.347 7.08337 58.5453 7.08337 56.6667V38.9583C7.08337 37.0797 7.82965 35.278 9.15803 33.9497C10.4864 32.6213 12.2881 31.875 14.1667 31.875H70.8334C72.712 31.875 74.5137 32.6213 75.8421 33.9497C77.1704 35.278 77.9167 37.0797 77.9167 38.9583V56.6667C77.9167 58.5453 77.1704 60.347 75.8421 61.6753C74.5137 63.0037 72.712 63.75 70.8334 63.75H63.75" stroke="black" stroke-width="4.33333" stroke-linecap="round" stroke-linejoin="round"/>
<path d="M63.75 49.5834H21.25V77.9167H63.75V49.5834Z" stroke="black" stroke-width="4.33333" stroke-linecap="round" stroke-linejoin="round"/>
</svg>
