<svg width="30" height="41" viewBox="0 0 30 41" fill="none" xmlns="http://www.w3.org/2000/svg">
<path fill-rule="evenodd" clip-rule="evenodd" d="M22.8259 25.1569C26.1147 22.581 28.2281 18.5734 28.2281 14.0721C28.2281 6.30028 21.9278 0 14.1561 0C6.38426 0 0.0839844 6.30028 0.0839844 14.0721C0.0839844 21.8439 6.38426 28.1441 14.1561 28.1441C14.7913 28.1441 15.4168 28.102 16.0297 28.0205L23.521 40.9957L29.8581 37.337L22.8259 25.1569ZM22.8259 25.1569L21.7529 23.2984L15.4158 26.9571L16.0297 28.0205C18.5724 27.6822 20.9006 26.6649 22.8259 25.1569ZM14.1561 24.9792C8.13222 24.9792 3.24893 20.0959 3.24893 14.0721C3.24893 8.04823 8.13222 3.16495 14.1561 3.16495C20.1799 3.16495 25.0632 8.04823 25.0632 14.0721C25.0632 20.0959 20.1799 24.9792 14.1561 24.9792Z" fill="#838383"/>
</svg>
