<svg width="78" height="78" viewBox="0 0 78 78" fill="none" xmlns="http://www.w3.org/2000/svg">
<path d="M60.4501 7.8H46.8V5.85C46.8 2.6247 44.1754 0 40.9501 0H33.15C29.9247 0 27.3 2.6247 27.3 5.85V7.8H13.65C10.4247 7.8 7.80005 10.4247 7.80005 13.65V17.55C7.80005 20.0928 9.43025 22.2612 11.7 23.0646V72.15C11.7 75.3753 14.3247 78 17.55 78H56.55C59.7753 78 62.4001 75.3753 62.4001 72.15V23.0646C64.6698 22.2612 66.3 20.0928 66.3 17.55V13.65C66.3 10.4247 63.6754 7.8 60.4501 7.8ZM31.2001 5.85C31.2001 4.7736 32.0737 3.9 33.15 3.9H40.9501C42.0265 3.9 42.9001 4.7736 42.9001 5.85V7.8H31.2001V5.85ZM56.55 74.1H17.55C16.4736 74.1 15.6 73.2264 15.6 72.15V23.4H58.5V72.15C58.5 73.2264 57.6264 74.1 56.55 74.1ZM62.4001 17.55C62.4001 18.6264 61.5265 19.5 60.4501 19.5H13.65C12.5736 19.5 11.7 18.6264 11.7 17.55V13.65C11.7 12.5736 12.5736 11.7 13.65 11.7H60.4501C61.5265 11.7 62.4001 12.5736 62.4001 13.65V17.55Z" fill="black"/>
<path d="M48.75 27.3C47.6736 27.3 46.8 28.1736 46.8 29.25V68.25C46.8 69.3264 47.6736 70.2 48.75 70.2C49.8264 70.2 50.7 69.3264 50.7 68.25V29.25C50.7 28.1736 49.8264 27.3 48.75 27.3Z" fill="black"/>
<path d="M37.05 27.3C35.9736 27.3 35.1 28.1736 35.1 29.25V68.25C35.1 69.3264 35.9736 70.2 37.05 70.2C38.1264 70.2 39 69.3264 39 68.25V29.25C39 28.1736 38.1264 27.3 37.05 27.3Z" fill="black"/>
<path d="M25.35 27.3C24.2736 27.3 23.4 28.1736 23.4 29.25V68.25C23.4 69.3264 24.2736 70.2 25.35 70.2C26.4264 70.2 27.3 69.3264 27.3 68.25V29.25C27.3 28.1736 26.4264 27.3 25.35 27.3Z" fill="black"/>
</svg>
