<svg width="20" height="20" viewBox="0 0 20 20" fill="none" xmlns="http://www.w3.org/2000/svg">
<mask id="mask0_1_298" style="mask-type:alpha" maskUnits="userSpaceOnUse" x="0" y="0" width="20" height="20">
<path d="M4.78479 13.3975C8.78557 15.3979 11.186 15.3979 15.1868 13.3975" stroke="black" stroke-width="0.993298" stroke-linecap="round" stroke-linejoin="round"/>
<path d="M12.786 14.598L13.5862 16.1983C13.5862 16.1983 16.9236 15.1357 17.987 13.3978C17.987 12.5976 18.4111 6.8789 15.5866 4.99613C14.3863 4.19598 12.3859 3.7959 12.3859 3.7959L11.5858 5.39621H9.98547" stroke="black" stroke-width="0.993298" stroke-linecap="round" stroke-linejoin="round"/>
<path d="M7.20764 14.598L6.40749 16.1983C6.40749 16.1983 3.07003 15.1357 2.00663 13.3978C2.00663 12.5976 1.58254 6.8789 4.4071 4.99613C5.60733 4.19598 7.60772 3.7959 7.60772 3.7959L8.40788 5.39621H10.0082" stroke="black" stroke-width="0.993298" stroke-linecap="round" stroke-linejoin="round"/>
<path d="M7.18498 11.7975C6.52245 11.7975 5.98474 11.0813 5.98474 10.1972C5.98474 9.313 6.52245 8.59686 7.18498 8.59686C7.84751 8.59686 8.38521 9.313 8.38521 10.1972C8.38521 11.0813 7.84751 11.7975 7.18498 11.7975ZM12.7861 11.7975C12.1235 11.7975 11.5858 11.0813 11.5858 10.1972C11.5858 9.313 12.1235 8.59686 12.7861 8.59686C13.4486 8.59686 13.9863 9.313 13.9863 10.1972C13.9863 11.0813 13.4486 11.7975 12.7861 11.7975Z" stroke="black" stroke-width="0.993298" stroke-linecap="round" stroke-linejoin="round"/>
</mask>
<g mask="url(#mask0_1_298)">
<rect x="-3.61755" y="-3.40625" width="27.2053" height="27.2053" fill="#FFBB02"/>
</g>
</svg>
