<svg width="19" height="19" viewBox="0 0 19 19" fill="none" xmlns="http://www.w3.org/2000/svg">
<mask id="mask0_1_292" style="mask-type:alpha" maskUnits="userSpaceOnUse" x="0" y="0" width="19" height="19">
<path d="M15.2177 2.49053C15.0383 2.50358 14.8623 2.54566 14.6964 2.61513H14.6942C14.5349 2.67827 13.7779 2.99674 12.6269 3.47948L8.50233 5.21658C5.54274 6.46254 2.63344 7.68951 2.63344 7.68951L2.66808 7.6761C2.66808 7.6761 2.46749 7.74203 2.25797 7.88563C2.12853 7.968 2.01714 8.07577 1.93055 8.20243C1.82775 8.35328 1.74506 8.58404 1.77579 8.82262C1.82607 9.22602 2.08756 9.46795 2.27529 9.60149C2.46526 9.7367 2.64629 9.79984 2.64629 9.79984H2.65076L5.37903 10.7189C5.5014 11.1117 6.21042 13.4428 6.38084 13.9797C6.48141 14.3004 6.57919 14.501 6.70155 14.6541C6.76077 14.7323 6.83006 14.7977 6.91331 14.8502C6.95659 14.8754 7.00273 14.8953 7.05075 14.9094L7.02282 14.9027C7.0312 14.905 7.0379 14.9117 7.04405 14.9139C7.0664 14.92 7.08148 14.9223 7.10998 14.9267C7.54188 15.0575 7.88885 14.7893 7.88885 14.7893L7.9084 14.7736L9.51922 13.307L12.219 15.3782L12.2805 15.4045C12.8431 15.6514 13.413 15.514 13.7142 15.2715C14.0176 15.0273 14.1354 14.715 14.1354 14.715L14.155 14.6647L16.2413 3.97675C16.3005 3.71303 16.3156 3.46607 16.2502 3.22638C16.1828 2.98379 16.0272 2.77515 15.8139 2.64139C15.6348 2.5325 15.4271 2.47994 15.2177 2.49053ZM15.1613 3.63593C15.159 3.67113 15.1657 3.66722 15.1501 3.73482V3.74097L13.0834 14.3177C13.0744 14.3328 13.0593 14.3658 13.018 14.3987C12.9744 14.4334 12.9398 14.4552 12.7582 14.3831L9.45609 11.8515L7.46142 13.6696L7.88047 10.9933L13.2756 5.96471C13.4979 5.75798 13.4236 5.7144 13.4236 5.7144C13.4393 5.46074 13.0878 5.64009 13.0878 5.64009L6.28474 9.85459L6.2825 9.84342L3.02175 8.74551V8.74328L3.01337 8.7416C3.01909 8.7397 3.02469 8.73746 3.03013 8.7349L3.04801 8.72596L3.06533 8.71981C3.06533 8.71981 5.97688 7.49284 8.93647 6.24687C10.4182 5.62277 11.9111 4.9942 13.0593 4.50922C13.7403 4.2226 14.4219 3.93764 15.1043 3.65437C15.1501 3.63649 15.1283 3.63593 15.1613 3.63593Z" fill="black"/>
</mask>
<g mask="url(#mask0_1_292)">
<rect x="-6.05322" y="-4.95703" width="31.2889" height="27.564" fill="#FFBB02"/>
</g>
</svg>
