<svg width="19" height="19" viewBox="0 0 19 19" fill="none" xmlns="http://www.w3.org/2000/svg">
<mask id="mask0_1_313" style="mask-type:alpha" maskUnits="userSpaceOnUse" x="0" y="0" width="19" height="19">
<path d="M16.3954 5.61755C15.4353 5.6164 14.5149 5.23449 13.836 4.5556C13.1571 3.8767 12.7752 2.95625 12.774 1.99615C12.774 1.8809 12.7282 1.77036 12.6467 1.68887C12.5652 1.60737 12.4547 1.56158 12.3395 1.56158H9.44234C9.32708 1.56158 9.21655 1.60737 9.13505 1.68887C9.05356 1.77036 9.00777 1.8809 9.00777 1.99615V11.5566C9.0076 11.8418 8.93093 12.1216 8.78576 12.367C8.64059 12.6124 8.43225 12.8143 8.18245 12.9517C7.93265 13.0892 7.65056 13.1571 7.36558 13.1483C7.08061 13.1396 6.80319 13.0546 6.56228 12.9021C6.32136 12.7497 6.12576 12.5353 5.99588 12.2815C5.866 12.0277 5.8066 11.7437 5.82387 11.4591C5.84114 11.1746 5.93445 10.8998 6.09407 10.6636C6.25369 10.4273 6.47377 10.2383 6.73136 10.116C6.80567 10.0808 6.86846 10.0252 6.91243 9.95575C6.95641 9.88626 6.97976 9.80573 6.97979 9.72349V6.63154C6.97972 6.56838 6.96589 6.50599 6.93926 6.44872C6.91262 6.39145 6.87383 6.34068 6.82556 6.29993C6.7773 6.25919 6.72074 6.22945 6.65982 6.2128C6.59889 6.19614 6.53507 6.19297 6.47279 6.20349C3.9523 6.65182 2.05469 8.95286 2.05469 11.5566C2.05469 12.9781 2.61937 14.3414 3.6245 15.3465C4.62963 16.3516 5.99288 16.9163 7.41436 16.9163C8.83583 16.9163 10.1991 16.3516 11.2042 15.3465C12.2093 14.3414 12.774 12.9781 12.774 11.5566V8.43717C13.879 9.06051 15.1267 9.38666 16.3954 9.3838C16.5107 9.3838 16.6212 9.33802 16.7027 9.25652C16.7842 9.17502 16.83 9.06449 16.83 8.94924V6.05212C16.83 5.93686 16.7842 5.82633 16.7027 5.74483C16.6212 5.66333 16.5107 5.61755 16.3954 5.61755ZM15.9609 8.50018C14.7467 8.42264 13.5793 8.0036 12.593 7.29136C12.5279 7.24467 12.4513 7.21684 12.3715 7.21094C12.2916 7.20505 12.2117 7.22131 12.1406 7.25794C12.0694 7.29458 12.0097 7.35015 11.9681 7.41855C11.9266 7.48694 11.9047 7.56549 11.9049 7.64553V11.5566C11.9049 12.7476 11.4318 13.8898 10.5896 14.7319C9.7475 15.5741 8.60532 16.0472 7.41436 16.0472C6.22339 16.0472 5.08121 15.5741 4.23907 14.7319C3.39693 13.8898 2.92382 12.7476 2.92382 11.5566C2.92382 9.54894 4.26157 7.75562 6.11065 7.18344V9.4671C5.74698 9.69404 5.44886 10.012 5.24575 10.3895C5.04265 10.767 4.94161 11.191 4.95262 11.6195C4.96363 12.048 5.08631 12.4663 5.30854 12.8328C5.53076 13.1994 5.84482 13.5016 6.21967 13.7096C6.59451 13.9175 7.01715 14.0241 7.44578 14.0186C7.87442 14.0131 8.2942 13.8958 8.66362 13.6784C9.03303 13.4609 9.33928 13.1508 9.55207 12.7787C9.76487 12.4065 9.87684 11.9853 9.87691 11.5566V2.43072H11.9259C12.0278 3.46624 12.4857 4.43438 13.2214 5.17015C13.9572 5.90591 14.9253 6.36377 15.9609 6.46568V8.50018Z" fill="black"/>
</mask>
<g mask="url(#mask0_1_313)">
<rect x="-7.67285" y="-8.29962" width="34.9437" height="29.2386" fill="#FFBB02"/>
</g>
</svg>
